<svg aria-hidden="true" style="position: absolute; width: 0; height: 0; overflow: hidden;" version="1.1" xmlns="http://www.w3.org/2000/svg" xmlns:xlink="http://www.w3.org/1999/xlink">
    <defs>
        <symbol id="icon-phone" viewBox="0 0 32 32">
            <path d="M30.945 24.439c0-0.154 0-0.308-0.066-0.462-0.154-0.462-1.231-0.945-1.67-1.165-1.253-0.703-2.527-1.385-3.758-2.11-0.572-0.352-1.275-1.011-1.956-1.011-1.341 0-3.297 3.978-4.484 3.978-0.593 0-1.363-0.549-1.89-0.857-4-2.22-6.769-4.989-8.989-8.989-0.308-0.527-0.857-1.297-0.857-1.89 0-1.187 3.978-3.143 3.978-4.484 0-0.681-0.659-1.385-1.011-1.956-0.725-1.231-1.407-2.506-2.11-3.758-0.22-0.44-0.703-1.516-1.165-1.67-0.154-0.066-0.308-0.066-0.462-0.066-0.791 0-2.33 0.352-3.055 0.681-1.077 0.462-1.78 1.692-2.33 2.681-0.703 1.297-1.121 2.615-1.121 4.088 0 2.044 0.835 3.89 1.516 5.758 0.484 1.341 1.077 2.637 1.824 3.846 2.308 3.736 6.813 8.242 10.549 10.55 1.209 0.747 2.505 1.341 3.846 1.824 1.868 0.681 3.714 1.517 5.758 1.517 1.473 0 2.791-0.417 4.088-1.121 0.989-0.55 2.22-1.253 2.681-2.33 0.33-0.725 0.681-2.264 0.681-3.055z"></path>
        </symbol>
        <symbol id="icon-menu" viewBox="0 0 53 32">
            <path stroke-linejoin="miter" stroke-linecap="butt" stroke-miterlimit="4" stroke-width="3.5556" d="M0 1.778h44.444"></path>
            <path stroke-linejoin="miter" stroke-linecap="butt" stroke-miterlimit="4" stroke-width="3.5556" d="M0 16h23.111"></path>
            <path stroke-linejoin="miter" stroke-linecap="butt" stroke-miterlimit="4" stroke-width="3.5556" d="M0 30.222h53.333"></path>
        </symbol>
    </defs>
</svg>