<svg aria-hidden="true" style="position: absolute; width: 0; height: 0; overflow: hidden;" version="1.1" xmlns="http://www.w3.org/2000/svg" xmlns:xlink="http://www.w3.org/1999/xlink">
    <defs>
        <symbol id="icon-phone" viewBox="0 0 32 32">
            <path d="M30.945 24.439c0-0.154 0-0.308-0.066-0.462-0.154-0.462-1.231-0.945-1.67-1.165-1.253-0.703-2.527-1.385-3.758-2.11-0.572-0.352-1.275-1.011-1.956-1.011-1.341 0-3.297 3.978-4.484 3.978-0.593 0-1.363-0.549-1.89-0.857-4-2.22-6.769-4.989-8.989-8.989-0.308-0.527-0.857-1.297-0.857-1.89 0-1.187 3.978-3.143 3.978-4.484 0-0.681-0.659-1.385-1.011-1.956-0.725-1.231-1.407-2.506-2.11-3.758-0.22-0.44-0.703-1.516-1.165-1.67-0.154-0.066-0.308-0.066-0.462-0.066-0.791 0-2.33 0.352-3.055 0.681-1.077 0.462-1.78 1.692-2.33 2.681-0.703 1.297-1.121 2.615-1.121 4.088 0 2.044 0.835 3.89 1.516 5.758 0.484 1.341 1.077 2.637 1.824 3.846 2.308 3.736 6.813 8.242 10.549 10.55 1.209 0.747 2.505 1.341 3.846 1.824 1.868 0.681 3.714 1.517 5.758 1.517 1.473 0 2.791-0.417 4.088-1.121 0.989-0.55 2.22-1.253 2.681-2.33 0.33-0.725 0.681-2.264 0.681-3.055z"></path>
        </symbol>
        <symbol id="icon-menu" viewBox="0 0 53 32">
            <path stroke-linejoin="miter" stroke-linecap="butt" stroke-miterlimit="4" stroke-width="3.5556" d="M0 1.778h44.444"></path>
            <path stroke-linejoin="miter" stroke-linecap="butt" stroke-miterlimit="4" stroke-width="3.5556" d="M0 16h23.111"></path>
            <path stroke-linejoin="miter" stroke-linecap="butt" stroke-miterlimit="4" stroke-width="3.5556" d="M0 30.222h53.333"></path>
        </symbol>
        <symbol id="icon-arrow" viewBox="0 0 142 32">
            <path
    d="M0 16.579h109.913"
    fill="none"
    stroke="currentColor"
    stroke-width="1.3913"
    stroke-linecap="butt"
    stroke-linejoin="miter"
    stroke-miterlimit="4"
  />
            <path
    d="M116.178 0.579l23.103 15.378-23.103 15.378"
    fill="none"
    stroke="currentColor"
    stroke-width="1.3913"
    stroke-linecap="butt"
    stroke-linejoin="miter"
    stroke-miterlimit="4"
  />
        </symbol>
        <symbol id="icon-clock" viewBox="0 0 32 32">
            <path stroke-linejoin="miter" stroke-linecap="butt" stroke-miterlimit="4" stroke-width="1.5238" d="M31.238 16c0 8.416-6.822 15.238-15.238 15.238s-15.238-6.822-15.238-15.238c0-8.416 6.822-15.238 15.238-15.238s15.238 6.822 15.238 15.238z"></path>
            <path stroke-linejoin="miter" stroke-linecap="butt" stroke-miterlimit="4" stroke-width="1.5238" d="M16 16.762v-12.19"></path>
            <path stroke-linejoin="miter" stroke-linecap="butt" stroke-miterlimit="4" stroke-width="1.5238" d="M15.238 16h7.619"></path>
        </symbol>
        <symbol id="icon-location" viewBox="0 0 23 32">
            <path stroke-linejoin="miter" stroke-linecap="butt" stroke-miterlimit="4" stroke-width="1.2308" d="M11.251 0.615c5.874 0 10.636 4.762 10.636 10.636 0 2.933-1.259 5.922-3.31 9.183-1.94 3.084-4.535 6.33-7.327 9.945-2.792-3.614-5.385-6.861-7.325-9.945-2.051-3.26-3.31-6.249-3.31-9.183 0-5.874 4.762-10.636 10.636-10.636z"></path>
            <path stroke-linejoin="miter" stroke-linecap="butt" stroke-miterlimit="4" stroke-width="1.2308" d="M15.965 11.251c0 2.604-2.111 4.714-4.714 4.714s-4.714-2.111-4.714-4.714c0-2.604 2.111-4.714 4.714-4.714s4.714 2.111 4.714 4.714z"></path>
        </symbol>
        <symbol id="icon-mail" viewBox="0 0 36 32">
            <path stroke-linejoin="miter" stroke-linecap="butt" stroke-miterlimit="4" stroke-width="1.4545" d="M5.818 5.463h24.727c2.812 0 5.091 2.279 5.091 5.091v14.545c0 2.812-2.279 5.091-5.091 5.091h-24.727c-2.812 0-5.091-2.279-5.091-5.091v-14.545c0-2.812 2.279-5.091 5.091-5.091z"></path>
            <path stroke-linejoin="miter" stroke-linecap="butt" stroke-miterlimit="4" stroke-width="1.4545" d="M5.819 11.281l12.363 8 12.364-8.114"></path>
        </symbol>
    </defs>
</svg>