<svg aria-hidden="true" style="position: absolute; width: 0; height: 0; overflow: hidden;" version="1.1" xmlns="http://www.w3.org/2000/svg" xmlns:xlink="http://www.w3.org/1999/xlink">
    <defs>
        <symbol id="icon-phone" viewBox="0 0 32 32">
            <path d="M30.945 24.439c0-0.154 0-0.308-0.066-0.462-0.154-0.462-1.231-0.945-1.67-1.165-1.253-0.703-2.527-1.385-3.758-2.11-0.572-0.352-1.275-1.011-1.956-1.011-1.341 0-3.297 3.978-4.484 3.978-0.593 0-1.363-0.549-1.89-0.857-4-2.22-6.769-4.989-8.989-8.989-0.308-0.527-0.857-1.297-0.857-1.89 0-1.187 3.978-3.143 3.978-4.484 0-0.681-0.659-1.385-1.011-1.956-0.725-1.231-1.407-2.506-2.11-3.758-0.22-0.44-0.703-1.516-1.165-1.67-0.154-0.066-0.308-0.066-0.462-0.066-0.791 0-2.33 0.352-3.055 0.681-1.077 0.462-1.78 1.692-2.33 2.681-0.703 1.297-1.121 2.615-1.121 4.088 0 2.044 0.835 3.89 1.516 5.758 0.484 1.341 1.077 2.637 1.824 3.846 2.308 3.736 6.813 8.242 10.549 10.55 1.209 0.747 2.505 1.341 3.846 1.824 1.868 0.681 3.714 1.517 5.758 1.517 1.473 0 2.791-0.417 4.088-1.121 0.989-0.55 2.22-1.253 2.681-2.33 0.33-0.725 0.681-2.264 0.681-3.055z"></path>
        </symbol>
        <symbol id="icon-menu" viewBox="0 0 53 32">
            <path stroke-linejoin="miter" stroke-linecap="butt" stroke-miterlimit="4" stroke-width="3.5556" d="M0 1.778h44.444"></path>
            <path stroke-linejoin="miter" stroke-linecap="butt" stroke-miterlimit="4" stroke-width="3.5556" d="M0 16h23.111"></path>
            <path stroke-linejoin="miter" stroke-linecap="butt" stroke-miterlimit="4" stroke-width="3.5556" d="M0 30.222h53.333"></path>
        </symbol>
        <symbol id="icon-arrow" viewBox="0 0 142 32">
            <path
    d="M0 16.579h109.913"
    fill="none"
    stroke="currentColor"
    stroke-width="1.3913"
    stroke-linecap="butt"
    stroke-linejoin="miter"
    stroke-miterlimit="4"
  />
            <path
    d="M116.178 0.579l23.103 15.378-23.103 15.378"
    fill="none"
    stroke="currentColor"
    stroke-width="1.3913"
    stroke-linecap="butt"
    stroke-linejoin="miter"
    stroke-miterlimit="4"
  />
        </symbol>
        <symbol id="icon-clock" viewBox="0 0 32 32">
            <path stroke-linejoin="miter" stroke-linecap="butt" stroke-miterlimit="4" stroke-width="1.5238" d="M31.238 16c0 8.416-6.822 15.238-15.238 15.238s-15.238-6.822-15.238-15.238c0-8.416 6.822-15.238 15.238-15.238s15.238 6.822 15.238 15.238z"></path>
            <path stroke-linejoin="miter" stroke-linecap="butt" stroke-miterlimit="4" stroke-width="1.5238" d="M16 16.762v-12.19"></path>
            <path stroke-linejoin="miter" stroke-linecap="butt" stroke-miterlimit="4" stroke-width="1.5238" d="M15.238 16h7.619"></path>
        </symbol>
        <symbol id="icon-location" viewBox="0 0 23 32">
            <path stroke-linejoin="miter" stroke-linecap="butt" stroke-miterlimit="4" stroke-width="1.2308" d="M11.251 0.615c5.874 0 10.636 4.762 10.636 10.636 0 2.933-1.259 5.922-3.31 9.183-1.94 3.084-4.535 6.33-7.327 9.945-2.792-3.614-5.385-6.861-7.325-9.945-2.051-3.26-3.31-6.249-3.31-9.183 0-5.874 4.762-10.636 10.636-10.636z"></path>
            <path stroke-linejoin="miter" stroke-linecap="butt" stroke-miterlimit="4" stroke-width="1.2308" d="M15.965 11.251c0 2.604-2.111 4.714-4.714 4.714s-4.714-2.111-4.714-4.714c0-2.604 2.111-4.714 4.714-4.714s4.714 2.111 4.714 4.714z"></path>
        </symbol>
        <symbol id="icon-mail" viewBox="0 0 36 32">
            <path stroke-linejoin="miter" stroke-linecap="butt" stroke-miterlimit="4" stroke-width="1.4545" d="M5.818 5.463h24.727c2.812 0 5.091 2.279 5.091 5.091v14.545c0 2.812-2.279 5.091-5.091 5.091h-24.727c-2.812 0-5.091-2.279-5.091-5.091v-14.545c0-2.812 2.279-5.091 5.091-5.091z"></path>
            <path stroke-linejoin="miter" stroke-linecap="butt" stroke-miterlimit="4" stroke-width="1.4545" d="M5.819 11.281l12.363 8 12.364-8.114"></path>
        </symbol>
        <symbol id="icon-facebook" viewBox="0 0 18 32">
            <path d="M16 18h-4.688v14h-6.25v-14h-5.063v-5.813h5.063v-4.375c0-1.667 0.313-3.083 0.938-4.25s1.5-2.042 2.625-2.625c1.167-0.625 2.5-0.938 4-0.938 0.667 0 1.375 0.042 2.125 0.125 0.75 0.042 1.333 0.104 1.75 0.188l0.625 0.063v4.938h-2.5c-1.167 0-2.021 0.313-2.563 0.938-0.5 0.583-0.75 1.313-0.75 2.188v3.75h5.563l-0.875 5.813z"></path>
        </symbol>
        <symbol id="icon-instagram" viewBox="0 0 32 32">
            <path d="M9.861 9.931c1.574-1.574 3.472-2.361 5.694-2.361s4.097 0.787 5.625 2.361c1.574 1.528 2.361 3.403 2.361 5.625s-0.787 4.12-2.361 5.694c-1.528 1.528-3.403 2.292-5.625 2.292s-4.12-0.764-5.694-2.292c-1.528-1.574-2.292-3.472-2.292-5.694s0.764-4.097 2.292-5.625zM11.875 19.236c1.018 1.018 2.245 1.528 3.681 1.528s2.662-0.509 3.681-1.528c1.018-1.018 1.528-2.245 1.528-3.681s-0.509-2.662-1.528-3.681c-1.018-1.019-2.245-1.528-3.681-1.528s-2.662 0.509-3.681 1.528c-1.019 1.018-1.528 2.245-1.528 3.681s0.509 2.662 1.528 3.681zM25.139 5.972c0.37 0.324 0.556 0.741 0.556 1.25s-0.185 0.949-0.556 1.319c-0.324 0.37-0.741 0.556-1.25 0.556s-0.949-0.185-1.319-0.556c-0.37-0.37-0.556-0.81-0.556-1.319s0.185-0.926 0.556-1.25c0.37-0.37 0.81-0.556 1.319-0.556s0.926 0.185 1.25 0.556zM31.042 9.167c0.046 1.25 0.070 3.38 0.070 6.389s-0.023 5.139-0.070 6.389c-0.139 2.824-0.995 5.023-2.569 6.597-1.528 1.528-3.704 2.338-6.528 2.431-1.25 0.093-3.38 0.139-6.389 0.139s-5.139-0.046-6.389-0.139c-2.824-0.139-5-0.972-6.528-2.5-0.602-0.556-1.088-1.204-1.458-1.944s-0.648-1.458-0.833-2.153c-0.139-0.694-0.208-1.505-0.208-2.43-0.093-1.25-0.139-3.38-0.139-6.389s0.046-5.162 0.139-6.458c0.139-2.778 0.972-4.931 2.5-6.458 1.528-1.574 3.704-2.431 6.528-2.569 1.25-0.046 3.38-0.069 6.389-0.069s5.139 0.023 6.389 0.069c2.824 0.139 5 0.995 6.528 2.569 1.574 1.528 2.431 3.704 2.569 6.528zM27.708 24.722c0.139-0.37 0.255-0.833 0.347-1.389 0.093-0.602 0.162-1.296 0.208-2.083 0.046-0.833 0.070-1.505 0.070-2.014s0-1.227 0-2.153c0-0.926 0-1.435 0-1.528 0-0.139 0-0.648 0-1.528 0-0.926 0-1.643 0-2.153s-0.023-1.157-0.070-1.944c-0.046-0.833-0.116-1.528-0.208-2.083-0.092-0.602-0.208-1.088-0.347-1.458-0.556-1.435-1.551-2.431-2.986-2.986-0.37-0.139-0.856-0.255-1.458-0.347-0.556-0.093-1.25-0.162-2.083-0.208-0.787-0.046-1.435-0.069-1.945-0.069-0.463 0-1.181 0-2.153 0-0.926 0-1.435 0-1.528 0s-0.602 0-1.528 0c-0.926 0-1.643 0-2.153 0s-1.181 0.023-2.014 0.069c-0.787 0.046-1.482 0.116-2.083 0.208-0.556 0.093-1.019 0.208-1.389 0.347-1.435 0.556-2.431 1.551-2.986 2.986-0.139 0.37-0.255 0.856-0.347 1.458-0.093 0.556-0.162 1.25-0.208 2.083-0.046 0.787-0.069 1.435-0.069 1.944 0 0.463 0 1.181 0 2.153 0 0.926 0 1.435 0 1.528 0 0.185 0 0.625 0 1.319 0 0.648 0 1.204 0 1.667 0 0.417 0 0.972 0 1.667 0.046 0.694 0.093 1.296 0.139 1.805 0.046 0.463 0.116 0.949 0.208 1.458s0.185 0.926 0.278 1.25c0.602 1.435 1.597 2.431 2.986 2.986 0.37 0.139 0.833 0.255 1.389 0.347 0.602 0.093 1.296 0.162 2.083 0.208 0.833 0.046 1.481 0.070 1.944 0.070 0.509 0 1.227 0 2.153 0 0.972 0 1.505 0 1.597 0 0.139 0 0.648 0 1.528 0 0.926 0 1.644 0 2.153 0s1.157-0.023 1.945-0.070c0.833-0.046 1.528-0.116 2.083-0.208 0.602-0.092 1.088-0.208 1.458-0.347 1.435-0.602 2.431-1.597 2.986-2.986z"></path>
        </symbol>
        <symbol id="icon-telegram" viewBox="0 0 38 32">
            <path d="M37.255 2.899l-5.667 26.5c-0.445 1.889-1.472 2.389-3.084 1.5l-8.583-6.333-4.167 4c-0.556 0.556-1.139 0.833-1.75 0.833l0.667-8.75 15.917-14.333c0.389-0.389 0.389-0.611 0-0.667-0.333-0.111-0.694-0.028-1.083 0.25l-19.667 12.417-8.5-2.667c-0.944-0.278-1.389-0.694-1.333-1.25s0.639-1.028 1.75-1.417l33.083-12.833c0.833-0.278 1.5-0.167 2 0.333 0.5 0.444 0.639 1.25 0.417 2.417z"></path>
        </symbol>
        <symbol id="icon-youtube" viewBox="0 0 47 32">
            <path d="M44.583 5c0.167 0.667 0.306 1.5 0.417 2.5 0.167 1 0.278 2 0.333 3 0.055 0.944 0.083 1.833 0.083 2.667 0.055 0.833 0.083 1.528 0.083 2.083v0.75c0 5-0.306 8.694-0.917 11.083-0.278 0.944-0.778 1.778-1.5 2.5s-1.583 1.222-2.583 1.5c-1.056 0.278-3.056 0.5-6 0.667-2.944 0.111-5.639 0.195-8.083 0.25h-3.667c-9.5 0-15.417-0.305-17.75-0.917-2.167-0.611-3.528-1.944-4.083-4-0.278-1.056-0.5-2.5-0.667-4.333-0.111-1.889-0.194-3.472-0.25-4.75v-2c0-4.944 0.306-8.611 0.917-11 0.278-1 0.778-1.861 1.5-2.583s1.583-1.222 2.583-1.5c1.056-0.278 3.056-0.472 6-0.583 2.944-0.167 5.639-0.278 8.083-0.333h3.667c9.5 0 15.417 0.306 17.75 0.917 1 0.278 1.861 0.778 2.583 1.5s1.222 1.583 1.5 2.583zM18.083 22.833l11.917-6.833-11.917-6.75v13.583z"></path>
        </symbol>
    </defs>
</svg>